<svg viewBox="0 0 2136 400" xmlns="http://www.w3.org/2000/svg"><g><g><g><g><g><line x1="49.98400115966797" y1="378.6199998855591" x2="44.98400115966797" y2="378.6199998855591" style="visibility: inherit;" fill="rgb(0, 0, 0)" stroke="rgb(204, 204, 204)" stroke-width="1px"></line><line x1="49.98400115966797" y1="349.4953845097468" x2="44.98400115966797" y2="349.4953845097468" style="visibility: inherit;" fill="rgb(0, 0, 0)" stroke="rgb(204, 204, 204)" stroke-width="1px"></line><line x1="49.98400115966797" y1="320.3707691339346" x2="44.98400115966797" y2="320.3707691339346" style="visibility: inherit;" fill="rgb(0, 0, 0)" stroke="rgb(204, 204, 204)" stroke-width="1px"></line><line x1="49.98400115966797" y1="291.24615375812243" x2="44.98400115966797" y2="291.24615375812243" style="visibility: inherit;" fill="rgb(0, 0, 0)" stroke="rgb(204, 204, 204)" stroke-width="1px"></line><line x1="49.98400115966797" y1="262.1215383823102" x2="44.98400115966797" y2="262.1215383823102" style="visibility: inherit;" fill="rgb(0, 0, 0)" stroke="rgb(204, 204, 204)" stroke-width="1px"></line><line x1="49.98400115966797" y1="232.99692300649792" x2="44.98400115966797" y2="232.99692300649792" style="visibility: inherit;" fill="rgb(0, 0, 0)" stroke="rgb(204, 204, 204)" stroke-width="1px"></line><line x1="49.98400115966797" y1="203.87230763068567" x2="44.98400115966797" y2="203.87230763068567" style="visibility: inherit;" fill="rgb(0, 0, 0)" stroke="rgb(204, 204, 204)" stroke-width="1px"></line><line x1="49.98400115966797" y1="174.74769225487339" x2="44.98400115966797" y2="174.74769225487339" style="visibility: inherit;" fill="rgb(0, 0, 0)" stroke="rgb(204, 204, 204)" stroke-width="1px"></line><line x1="49.98400115966797" y1="145.62307687906113" x2="44.98400115966797" y2="145.62307687906113" style="visibility: inherit;" fill="rgb(0, 0, 0)" stroke="rgb(204, 204, 204)" stroke-width="1px"></line><line x1="49.98400115966797" y1="116.49846150324902" x2="44.98400115966797" y2="116.49846150324902" style="visibility: inherit;" fill="rgb(0, 0, 0)" stroke="rgb(204, 204, 204)" stroke-width="1px"></line><line x1="49.98400115966797" y1="87.37384612743676" x2="44.98400115966797" y2="87.37384612743676" style="visibility: inherit;" fill="rgb(0, 0, 0)" stroke="rgb(204, 204, 204)" stroke-width="1px"></line><line x1="49.98400115966797" y1="58.24923075162451" x2="44.98400115966797" y2="58.24923075162451" style="visibility: inherit;" fill="rgb(0, 0, 0)" stroke="rgb(204, 204, 204)" stroke-width="1px"></line><line x1="49.98400115966797" y1="29.124615375812255" x2="44.98400115966797" y2="29.124615375812255" style="visibility: inherit;" fill="rgb(0, 0, 0)" stroke="rgb(204, 204, 204)" stroke-width="1px"></line><line x1="49.98400115966797" y1="0" x2="44.98400115966797" y2="0" style="visibility: inherit;" fill="rgb(0, 0, 0)" stroke="rgb(204, 204, 204)" stroke-width="1px"></line></g><g transform="translate(39.98400115966797, 0)"><text style="text-anchor: end; visibility: hidden; font-family: &quot;Helvetica Neue&quot;, sans-serif; font-size: 12px; font-weight: 200;" x="0" y="378.6199998855591" dx="0em" dy="0.3em" fill="rgb(50, 49, 63)" stroke="none" stroke-width="1px">0.64</text><text style="text-anchor: end; visibility: inherit; font-family: &quot;Helvetica Neue&quot;, sans-serif; font-size: 12px; font-weight: 200;" x="0" y="349.4953845097468" dx="0em" dy="0.3em" fill="rgb(50, 49, 63)" stroke="none" stroke-width="1px">0.66</text><text style="text-anchor: end; visibility: inherit; font-family: &quot;Helvetica Neue&quot;, sans-serif; font-size: 12px; font-weight: 200;" x="0" y="320.3707691339346" dx="0em" dy="0.3em" fill="rgb(50, 49, 63)" stroke="none" stroke-width="1px">0.68</text><text style="text-anchor: end; visibility: inherit; font-family: &quot;Helvetica Neue&quot;, sans-serif; font-size: 12px; font-weight: 200;" x="0" y="291.24615375812243" dx="0em" dy="0.3em" fill="rgb(50, 49, 63)" stroke="none" stroke-width="1px">0.7</text><text style="text-anchor: end; visibility: inherit; font-family: &quot;Helvetica Neue&quot;, sans-serif; font-size: 12px; font-weight: 200;" x="0" y="262.1215383823102" dx="0em" dy="0.3em" fill="rgb(50, 49, 63)" stroke="none" stroke-width="1px">0.72</text><text style="text-anchor: end; visibility: inherit; font-family: &quot;Helvetica Neue&quot;, sans-serif; font-size: 12px; font-weight: 200;" x="0" y="232.99692300649792" dx="0em" dy="0.3em" fill="rgb(50, 49, 63)" stroke="none" stroke-width="1px">0.74</text><text style="text-anchor: end; visibility: inherit; font-family: &quot;Helvetica Neue&quot;, sans-serif; font-size: 12px; font-weight: 200;" x="0" y="203.87230763068567" dx="0em" dy="0.3em" fill="rgb(50, 49, 63)" stroke="none" stroke-width="1px">0.76</text><text style="text-anchor: end; visibility: inherit; font-family: &quot;Helvetica Neue&quot;, sans-serif; font-size: 12px; font-weight: 200;" x="0" y="174.74769225487339" dx="0em" dy="0.3em" fill="rgb(50, 49, 63)" stroke="none" stroke-width="1px">0.78</text><text style="text-anchor: end; visibility: inherit; font-family: &quot;Helvetica Neue&quot;, sans-serif; font-size: 12px; font-weight: 200;" x="0" y="145.62307687906113" dx="0em" dy="0.3em" fill="rgb(50, 49, 63)" stroke="none" stroke-width="1px">0.8</text><text style="text-anchor: end; visibility: inherit; font-family: &quot;Helvetica Neue&quot;, sans-serif; font-size: 12px; font-weight: 200;" x="0" y="116.49846150324902" dx="0em" dy="0.3em" fill="rgb(50, 49, 63)" stroke="none" stroke-width="1px">0.82</text><text style="text-anchor: end; visibility: inherit; font-family: &quot;Helvetica Neue&quot;, sans-serif; font-size: 12px; font-weight: 200;" x="0" y="87.37384612743676" dx="0em" dy="0.3em" fill="rgb(50, 49, 63)" stroke="none" stroke-width="1px">0.84</text><text style="text-anchor: end; visibility: inherit; font-family: &quot;Helvetica Neue&quot;, sans-serif; font-size: 12px; font-weight: 200;" x="0" y="58.24923075162451" dx="0em" dy="0.3em" fill="rgb(50, 49, 63)" stroke="none" stroke-width="1px">0.86</text><text style="text-anchor: end; visibility: inherit; font-family: &quot;Helvetica Neue&quot;, sans-serif; font-size: 12px; font-weight: 200;" x="0" y="29.124615375812255" dx="0em" dy="0.3em" fill="rgb(50, 49, 63)" stroke="none" stroke-width="1px">0.88</text><text style="text-anchor: end; visibility: hidden; font-family: &quot;Helvetica Neue&quot;, sans-serif; font-size: 12px; font-weight: 200;" x="0" y="0" dx="0em" dy="0.3em" fill="rgb(50, 49, 63)" stroke="none" stroke-width="1px">0.9</text></g><line x1="49.98400115966797" y1="0" x2="49.98400115966797" y2="378.6199998855591" fill="rgb(0, 0, 0)" stroke="rgb(204, 204, 204)" stroke-width="1px"></line></g></g><g transform="translate(49, 0)" clip-path="url(#clip_0)"><clipPath id="clip_0"><rect width="2086" height="378"></rect></clipPath><g><g><g><line x1="0" y1="0" x2="0" y2="378.6199998855591" fill="rgb(0, 0, 0)" stroke="rgb(60, 60, 60)" stroke-width="1px" opacity="0.25"></line><line x1="149.00114277430941" y1="0" x2="149.00114277430941" y2="378.6199998855591" fill="rgb(0, 0, 0)" stroke="rgb(60, 60, 60)" stroke-width="1px" opacity="0.25"></line><line x1="298.00228554861883" y1="0" x2="298.00228554861883" y2="378.6199998855591" fill="rgb(0, 0, 0)" stroke="rgb(60, 60, 60)" stroke-width="1px" opacity="0.25"></line><line x1="447.00342832292824" y1="0" x2="447.00342832292824" y2="378.6199998855591" fill="rgb(0, 0, 0)" stroke="rgb(60, 60, 60)" stroke-width="1px" opacity="0.25"></line><line x1="596.0045710972377" y1="0" x2="596.0045710972377" y2="378.6199998855591" fill="rgb(0, 0, 0)" stroke="rgb(60, 60, 60)" stroke-width="1px" opacity="0.25"></line><line x1="745.0057138715472" y1="0" x2="745.0057138715472" y2="378.6199998855591" fill="rgb(0, 0, 0)" stroke="rgb(60, 60, 60)" stroke-width="1px" opacity="0.25"></line><line x1="894.0068566458565" y1="0" x2="894.0068566458565" y2="378.6199998855591" fill="rgb(0, 0, 0)" stroke="rgb(60, 60, 60)" stroke-width="1px" opacity="0.25"></line><line x1="1043.007999420166" y1="0" x2="1043.007999420166" y2="378.6199998855591" fill="rgb(0, 0, 0)" stroke="rgb(60, 60, 60)" stroke-width="1px" opacity="0.25"></line><line x1="1192.0091421944753" y1="0" x2="1192.0091421944753" y2="378.6199998855591" fill="rgb(0, 0, 0)" stroke="rgb(60, 60, 60)" stroke-width="1px" opacity="0.25"></line><line x1="1341.010284968785" y1="0" x2="1341.010284968785" y2="378.6199998855591" fill="rgb(0, 0, 0)" stroke="rgb(60, 60, 60)" stroke-width="1px" opacity="0.25"></line><line x1="1490.0114277430944" y1="0" x2="1490.0114277430944" y2="378.6199998855591" fill="rgb(0, 0, 0)" stroke="rgb(60, 60, 60)" stroke-width="1px" opacity="0.25"></line><line x1="1639.0125705174037" y1="0" x2="1639.0125705174037" y2="378.6199998855591" fill="rgb(0, 0, 0)" stroke="rgb(60, 60, 60)" stroke-width="1px" opacity="0.25"></line><line x1="1788.013713291713" y1="0" x2="1788.013713291713" y2="378.6199998855591" fill="rgb(0, 0, 0)" stroke="rgb(60, 60, 60)" stroke-width="1px" opacity="0.25"></line><line x1="1937.0148560660227" y1="0" x2="1937.0148560660227" y2="378.6199998855591" fill="rgb(0, 0, 0)" stroke="rgb(60, 60, 60)" stroke-width="1px" opacity="0.25"></line><line x1="2086.015998840332" y1="0" x2="2086.015998840332" y2="378.6199998855591" fill="rgb(0, 0, 0)" stroke="rgb(60, 60, 60)" stroke-width="1px" opacity="0.25"></line></g><g><line x1="0" y1="378.6199998855591" x2="2086.015998840332" y2="378.6199998855591" fill="rgb(0, 0, 0)" stroke="rgb(60, 60, 60)" stroke-width="1px" opacity="0.25"></line><line x1="0" y1="349.4953845097468" x2="2086.015998840332" y2="349.4953845097468" fill="rgb(0, 0, 0)" stroke="rgb(60, 60, 60)" stroke-width="1px" opacity="0.25"></line><line x1="0" y1="320.3707691339346" x2="2086.015998840332" y2="320.3707691339346" fill="rgb(0, 0, 0)" stroke="rgb(60, 60, 60)" stroke-width="1px" opacity="0.25"></line><line x1="0" y1="291.24615375812243" x2="2086.015998840332" y2="291.24615375812243" fill="rgb(0, 0, 0)" stroke="rgb(60, 60, 60)" stroke-width="1px" opacity="0.25"></line><line x1="0" y1="262.1215383823102" x2="2086.015998840332" y2="262.1215383823102" fill="rgb(0, 0, 0)" stroke="rgb(60, 60, 60)" stroke-width="1px" opacity="0.25"></line><line x1="0" y1="232.99692300649792" x2="2086.015998840332" y2="232.99692300649792" fill="rgb(0, 0, 0)" stroke="rgb(60, 60, 60)" stroke-width="1px" opacity="0.25"></line><line x1="0" y1="203.87230763068567" x2="2086.015998840332" y2="203.87230763068567" fill="rgb(0, 0, 0)" stroke="rgb(60, 60, 60)" stroke-width="1px" opacity="0.25"></line><line x1="0" y1="174.74769225487339" x2="2086.015998840332" y2="174.74769225487339" fill="rgb(0, 0, 0)" stroke="rgb(60, 60, 60)" stroke-width="1px" opacity="0.25"></line><line x1="0" y1="145.62307687906113" x2="2086.015998840332" y2="145.62307687906113" fill="rgb(0, 0, 0)" stroke="rgb(60, 60, 60)" stroke-width="1px" opacity="0.25"></line><line x1="0" y1="116.49846150324902" x2="2086.015998840332" y2="116.49846150324902" fill="rgb(0, 0, 0)" stroke="rgb(60, 60, 60)" stroke-width="1px" opacity="0.25"></line><line x1="0" y1="87.37384612743676" x2="2086.015998840332" y2="87.37384612743676" fill="rgb(0, 0, 0)" stroke="rgb(60, 60, 60)" stroke-width="1px" opacity="0.25"></line><line x1="0" y1="58.24923075162451" x2="2086.015998840332" y2="58.24923075162451" fill="rgb(0, 0, 0)" stroke="rgb(60, 60, 60)" stroke-width="1px" opacity="0.25"></line><line x1="0" y1="29.124615375812255" x2="2086.015998840332" y2="29.124615375812255" fill="rgb(0, 0, 0)" stroke="rgb(60, 60, 60)" stroke-width="1px" opacity="0.25"></line><line x1="0" y1="0" x2="2086.015998840332" y2="0" fill="rgb(0, 0, 0)" stroke="rgb(60, 60, 60)" stroke-width="1px" opacity="0.25"></line></g></g></g><g><g><line x1="0" y1="1310.6076919115508" x2="2086.015998840332" y2="1310.6076919115508" fill="rgb(0, 0, 0)" stroke="rgb(153, 153, 153)" stroke-width="1.5px"></line></g></g><g><g><line x1="149.00114277430941" y1="0" x2="149.00114277430941" y2="378.6199998855591" fill="rgb(0, 0, 0)" stroke="rgb(153, 153, 153)" stroke-width="1.5px"></line></g></g><g><g><g><g><g><path style="fill: none;" stroke="rgb(0, 119, 187)" stroke-width="2px" d="M245.06217952090674,402.943173530748L258.50208259914945,337.51803140604494L286.27589561228075,320.76480093755475L299.6710983476911,280.494877749353L313.45370405431476,253.23243080461896L339.8567065539224,216.94488289052137L352.8943065466745,238.2813438098531L379.99761441732136,188.91554010721708L393.43751749556407,209.3339288287993L420.9282283374242,179.14806316849953L434.3234310728346,161.9332790313413L448.1507371222905,136.20184128084335L461.15853688648764,184.73522921828425L488.29164498568946,164.33873159086758L515.4992536562784,137.46325032012933L528.8199558203016,135.30210847204395L555.6550616339548,129.238520895836L583.1755727043696,199.91232071174414L596.4664746398381,159.65972705441402L623.7187836532593,166.00285013902396L636.711683303179,173.22731041688704L649.7790835244859,144.2494934309266L662.9507845457349,132.23921994494728L690.1136928734916,140.67433716723866L703.3300942375728,150.1943292915673L730.7463045080458,191.14119272294275L758.0433138642992,159.53768736228412L785.3105229919978,119.67938968333493L798.3630230990273,111.90494049135276L811.6092246916635,120.55642217951464L838.7274326765878,118.00481464545084L865.9648415757315,104.64382209858616L878.0935345975603,93.88808636306612L890.5947304763249,93.02989468582018L916.5060292047773,79.52553718330734L929.0370253120967,87.7838818370434L941.597821647971,114.75290500106115L954.0543171839033,88.40959482184707L966.4661123770032,62.179710293436074L992.3476108769008,90.51463485921437L1004.8935070984977,66.51722780707081L1017.4394033200945,77.28253003468029L1029.9256990845815,76.45862019260386L1042.456695191901,84.7695266957291L1068.3381936917986,97.6851480865887L1094.279292648806,94.06379390796218L1106.735788184738,114.04640925542975L1119.25188417778,131.4401334286583L1131.767980170822,159.58853070433378L1144.313876392419,135.15225613576254L1156.8746727282933,107.35550584162866L1169.0182658643996,82.10221826886715L1194.6464624215807,89.01717421894705L1207.1178580717906,90.89304396381795L1232.4480523434231,107.86949918534407L1244.9939485650198,83.14256544191664L1270.756246150698,124.45766989225129L1296.339742365047,87.05199268564849L1308.6919371010372,66.15404420668779L1321.0441318370276,97.73934127908836L1333.1728248588563,80.69336112157583L1345.3164179949624,66.51184101255103L1370.4827110095432,81.50126255922487L1395.8427055097309,70.32327597202061L1407.9415983030046,68.72181042492736L1420.1447918962206,59.14087115240943L1445.3259850250788,82.92258959137212L1457.529178618295,70.89092301509118L1482.6507712900434,86.34935480359553L1494.8837651118142,69.34777667526185L1520.184159154892,87.94838952390063L1545.4398528551374,75.57903742164052L1557.5834459912437,89.78571168647835L1569.5333376417432,90.56027614074469L1594.6847305420467,98.18700525745044L1606.8283236781529,72.5152180457244L1619.0613174999237,70.89457579112212L1631.2198107503073,63.25717129683062L1643.4230043435234,59.34053960139198L1668.753198615156,82.98569413029003L1680.9563922083719,79.36420872676456L1693.1893860301425,73.34039747620005L1705.3627793948037,61.40935812403728L1731.2442778947013,61.04102069771244L1743.7752740020208,111.99483437821533L1769.7312730733054,95.79727620347381L1782.2175688377924,90.66650788772728L1794.7634650593893,74.65158600004884L1820.7045640163967,76.11710054509894L1833.2653603522708,68.77030862441495L1845.8261566881454,53.305993399061265L1858.32735256691,78.135766185487L1870.8732487885065,65.08192786157849L1896.7994476312365,76.45669426023466L1909.4198444242204,69.7647262671104L1935.3162430383954,71.89016510496174L1947.8621392599923,67.78411870745299L1960.0355326246533,57.13994187339449L1972.402627474921,58.049130037586906" fill="none"></path></g></g></g></g><g opacity="0.2"><g><g><g><path style="fill: none;" stroke="rgb(0, 119, 187)" stroke-width="2px" d="M203.95276422947472,459.441567210564L217.33306685060774,364.91381675162484L245.06217952090674,368.75992814435415L258.50208259914945,247.01150679641555L286.27589561228075,296.80741331592606L299.6710983476911,221.7809431496923L313.45370405431476,213.02561701883073L339.8567065539224,163.0621033340709L352.8943065466745,270.09251505867576L379.99761441732136,115.13548107701934L393.43751749556407,239.89484232932452L420.9282283374242,133.92840193129942L434.3234310728346,136.13133815813862L448.1507371222905,97.62283245858941L461.15853688648764,257.5147734212128L488.29164498568946,133.7491638182804L515.4992536562784,97.15412262309172L528.8199558203016,132.06059323684113L555.6550616339548,120.14347207307685L583.1755727043696,305.9206948841196L596.4664746398381,99.28163128566285L623.7187836532593,175.51745962559838L636.711683303179,184.06394948531045L649.7790835244859,100.78289152913845L662.9507845457349,114.22384044697628L690.1136928734916,153.3270000507838L703.3300942375728,164.47430870880194L730.7463045080458,252.5614652392967L758.0433138642992,112.13243980136207L785.3105229919978,59.891951095377976L798.3630230990273,100.24326763149224L811.6092246916635,133.53364409206915L838.7274326765878,114.17740345401495L865.9648415757315,84.6023336228165L878.0935345975603,77.75448292619518L890.5947304763249,91.74260717791776L916.5060292047773,59.2690010047545L929.0370253120967,100.1713987900493L941.597821647971,155.20643969301184L954.0543171839033,48.8946295847191L966.4661123770032,22.83488351975336L992.3476108769008,133.0170216956095L1004.8935070984977,30.521117235091765L1017.4394033200945,93.43048337441559L1029.9256990845815,75.22275542956618L1042.456695191901,97.23588644995078L1068.3381936917986,117.05858017244287L1094.279292648806,88.63176264009604L1106.735788184738,144.02033227638861L1119.25188417778,157.5307196883743L1131.767980170822,201.81112661772457L1144.313876392419,98.49784428296948L1156.8746727282933,65.6603804004717L1169.0182658643996,44.22228690974856L1194.6464624215807,99.38960814406266L1207.1178580717906,93.7068485811239L1232.4480523434231,133.3341820176296L1244.9939485650198,46.052164826778665L1270.756246150698,186.43032656775L1296.339742365047,30.943476875745773L1308.6919371010372,34.80712148824745L1321.0441318370276,145.11728688768858L1333.1728248588563,55.124390885307264L1345.3164179949624,45.23956084901397L1370.4827110095432,103.98539487923529L1395.8427055097309,53.55629609121445L1407.9415983030046,66.31961210428739L1420.1447918962206,44.76946224363326L1445.3259850250788,118.59516724981609L1457.529178618295,52.84342315066948L1482.6507712900434,109.53700248635243L1494.8837651118142,43.84540948276134L1520.184159154892,115.8493087968588L1545.4398528551374,57.025009268250415L1557.5834459912437,111.09572308373532L1569.5333376417432,91.72212282214417L1594.6847305420467,109.62709893250923L1606.8283236781529,34.00753722813545L1619.0613174999237,68.46361240921863L1631.2198107503073,51.80106455539328L1643.4230043435234,53.46559205823388L1668.753198615156,118.45342592363693L1680.9563922083719,73.9319806214761L1693.1893860301425,64.30468060035344L1705.3627793948037,43.512799095793355L1731.2442778947013,60.48851455822535L1743.7752740020208,188.42555489896952L1769.7312730733054,71.50093894136137L1782.2175688377924,82.9703554141077L1794.7634650593893,50.62920316853132L1820.7045640163967,78.31537236267405L1833.2653603522708,57.75012074338889L1845.8261566881454,30.10952056103065L1858.32735256691,115.38042536512569L1870.8732487885065,45.50117037571579L1896.7994476312365,93.5188438582187L1909.4198444242204,59.72677427742394L1935.3162430383954,75.07832336173874L1947.8621392599923,61.62504911118958L1960.0355326246533,41.1736766223068L1972.402627474921,59.41291228387581" fill="none"></path></g></g></g></g></g></g><g transform="translate(49, 378)" clip-path="url(#clip_1)"><clipPath id="clip_1"><rect width="2086" height="21"></rect></clipPath><g><g><line x1="0" y1="0" x2="0" y2="5" style="visibility: inherit;" fill="rgb(0, 0, 0)" stroke="rgb(204, 204, 204)" stroke-width="1px"></line><line x1="149.00114277430941" y1="0" x2="149.00114277430941" y2="5" style="visibility: inherit;" fill="rgb(0, 0, 0)" stroke="rgb(204, 204, 204)" stroke-width="1px"></line><line x1="298.00228554861883" y1="0" x2="298.00228554861883" y2="5" style="visibility: inherit;" fill="rgb(0, 0, 0)" stroke="rgb(204, 204, 204)" stroke-width="1px"></line><line x1="447.00342832292824" y1="0" x2="447.00342832292824" y2="5" style="visibility: inherit;" fill="rgb(0, 0, 0)" stroke="rgb(204, 204, 204)" stroke-width="1px"></line><line x1="596.0045710972377" y1="0" x2="596.0045710972377" y2="5" style="visibility: inherit;" fill="rgb(0, 0, 0)" stroke="rgb(204, 204, 204)" stroke-width="1px"></line><line x1="745.0057138715472" y1="0" x2="745.0057138715472" y2="5" style="visibility: inherit;" fill="rgb(0, 0, 0)" stroke="rgb(204, 204, 204)" stroke-width="1px"></line><line x1="894.0068566458565" y1="0" x2="894.0068566458565" y2="5" style="visibility: inherit;" fill="rgb(0, 0, 0)" stroke="rgb(204, 204, 204)" stroke-width="1px"></line><line x1="1043.007999420166" y1="0" x2="1043.007999420166" y2="5" style="visibility: inherit;" fill="rgb(0, 0, 0)" stroke="rgb(204, 204, 204)" stroke-width="1px"></line><line x1="1192.0091421944753" y1="0" x2="1192.0091421944753" y2="5" style="visibility: inherit;" fill="rgb(0, 0, 0)" stroke="rgb(204, 204, 204)" stroke-width="1px"></line><line x1="1341.010284968785" y1="0" x2="1341.010284968785" y2="5" style="visibility: inherit;" fill="rgb(0, 0, 0)" stroke="rgb(204, 204, 204)" stroke-width="1px"></line><line x1="1490.0114277430944" y1="0" x2="1490.0114277430944" y2="5" style="visibility: inherit;" fill="rgb(0, 0, 0)" stroke="rgb(204, 204, 204)" stroke-width="1px"></line><line x1="1639.0125705174037" y1="0" x2="1639.0125705174037" y2="5" style="visibility: inherit;" fill="rgb(0, 0, 0)" stroke="rgb(204, 204, 204)" stroke-width="1px"></line><line x1="1788.013713291713" y1="0" x2="1788.013713291713" y2="5" style="visibility: inherit;" fill="rgb(0, 0, 0)" stroke="rgb(204, 204, 204)" stroke-width="1px"></line><line x1="1937.0148560660227" y1="0" x2="1937.0148560660227" y2="5" style="visibility: inherit;" fill="rgb(0, 0, 0)" stroke="rgb(204, 204, 204)" stroke-width="1px"></line><line x1="2086.015998840332" y1="0" x2="2086.015998840332" y2="5" style="visibility: inherit;" fill="rgb(0, 0, 0)" stroke="rgb(204, 204, 204)" stroke-width="1px"></line></g><g transform="translate(0, 8)"><text style="text-anchor: middle; visibility: hidden; font-family: &quot;Helvetica Neue&quot;, sans-serif; font-size: 12px; font-weight: 200;" x="0" y="0" dx="0em" dy="0.95em" fill="rgb(50, 49, 63)" stroke="none" stroke-width="1px">-10k</text><text style="text-anchor: middle; visibility: inherit; font-family: &quot;Helvetica Neue&quot;, sans-serif; font-size: 12px; font-weight: 200;" x="149.00114277430941" y="0" dx="0em" dy="0.95em" fill="rgb(50, 49, 63)" stroke="none" stroke-width="1px">0</text><text style="text-anchor: middle; visibility: inherit; font-family: &quot;Helvetica Neue&quot;, sans-serif; font-size: 12px; font-weight: 200;" x="298.00228554861883" y="0" dx="0em" dy="0.95em" fill="rgb(50, 49, 63)" stroke="none" stroke-width="1px">10k</text><text style="text-anchor: middle; visibility: inherit; font-family: &quot;Helvetica Neue&quot;, sans-serif; font-size: 12px; font-weight: 200;" x="447.00342832292824" y="0" dx="0em" dy="0.95em" fill="rgb(50, 49, 63)" stroke="none" stroke-width="1px">20k</text><text style="text-anchor: middle; visibility: inherit; font-family: &quot;Helvetica Neue&quot;, sans-serif; font-size: 12px; font-weight: 200;" x="596.0045710972377" y="0" dx="0em" dy="0.95em" fill="rgb(50, 49, 63)" stroke="none" stroke-width="1px">30k</text><text style="text-anchor: middle; visibility: inherit; font-family: &quot;Helvetica Neue&quot;, sans-serif; font-size: 12px; font-weight: 200;" x="745.0057138715472" y="0" dx="0em" dy="0.95em" fill="rgb(50, 49, 63)" stroke="none" stroke-width="1px">40k</text><text style="text-anchor: middle; visibility: inherit; font-family: &quot;Helvetica Neue&quot;, sans-serif; font-size: 12px; font-weight: 200;" x="894.0068566458565" y="0" dx="0em" dy="0.95em" fill="rgb(50, 49, 63)" stroke="none" stroke-width="1px">50k</text><text style="text-anchor: middle; visibility: inherit; font-family: &quot;Helvetica Neue&quot;, sans-serif; font-size: 12px; font-weight: 200;" x="1043.007999420166" y="0" dx="0em" dy="0.95em" fill="rgb(50, 49, 63)" stroke="none" stroke-width="1px">60k</text><text style="text-anchor: middle; visibility: inherit; font-family: &quot;Helvetica Neue&quot;, sans-serif; font-size: 12px; font-weight: 200;" x="1192.0091421944753" y="0" dx="0em" dy="0.95em" fill="rgb(50, 49, 63)" stroke="none" stroke-width="1px">70k</text><text style="text-anchor: middle; visibility: inherit; font-family: &quot;Helvetica Neue&quot;, sans-serif; font-size: 12px; font-weight: 200;" x="1341.010284968785" y="0" dx="0em" dy="0.95em" fill="rgb(50, 49, 63)" stroke="none" stroke-width="1px">80k</text><text style="text-anchor: middle; visibility: inherit; font-family: &quot;Helvetica Neue&quot;, sans-serif; font-size: 12px; font-weight: 200;" x="1490.0114277430944" y="0" dx="0em" dy="0.95em" fill="rgb(50, 49, 63)" stroke="none" stroke-width="1px">90k</text><text style="text-anchor: middle; visibility: inherit; font-family: &quot;Helvetica Neue&quot;, sans-serif; font-size: 12px; font-weight: 200;" x="1639.0125705174037" y="0" dx="0em" dy="0.95em" fill="rgb(50, 49, 63)" stroke="none" stroke-width="1px">100k</text><text style="text-anchor: middle; visibility: inherit; font-family: &quot;Helvetica Neue&quot;, sans-serif; font-size: 12px; font-weight: 200;" x="1788.013713291713" y="0" dx="0em" dy="0.95em" fill="rgb(50, 49, 63)" stroke="none" stroke-width="1px">110k</text><text style="text-anchor: middle; visibility: inherit; font-family: &quot;Helvetica Neue&quot;, sans-serif; font-size: 12px; font-weight: 200;" x="1937.0148560660227" y="0" dx="0em" dy="0.95em" fill="rgb(50, 49, 63)" stroke="none" stroke-width="1px">120k</text><text style="text-anchor: middle; visibility: hidden; font-family: &quot;Helvetica Neue&quot;, sans-serif; font-size: 12px; font-weight: 200;" x="2086.015998840332" y="0" dx="0em" dy="0.95em" fill="rgb(50, 49, 63)" stroke="none" stroke-width="1px">130k</text></g><line x1="0" y1="0" x2="2086.015998840332" y2="0" fill="rgb(0, 0, 0)" stroke="rgb(204, 204, 204)" stroke-width="1px"></line></g></g></g></g></svg>